<svg width="47" height="47" viewBox="0 0 47 47" fill="none" xmlns="http://www.w3.org/2000/svg">
<path d="M18.2274 37.2083C17.8926 37.2073 17.5616 37.1374 17.255 37.0032C16.9484 36.8689 16.6727 36.6731 16.445 36.4279L4.57836 23.8182C4.13476 23.346 3.89713 22.7171 3.91774 22.0699C3.93835 21.4227 4.2155 20.8101 4.68823 20.367C5.16096 19.9239 5.79055 19.6866 6.43849 19.7071C7.08642 19.7277 7.69964 20.0046 8.14323 20.4768L18.203 31.184L38.7377 8.74518C38.9461 8.48597 39.2053 8.27205 39.4995 8.11656C39.7936 7.96107 40.1165 7.86729 40.4483 7.84099C40.7801 7.81469 41.1137 7.85641 41.4287 7.9636C41.7438 8.07079 42.0336 8.24119 42.2803 8.46432C42.527 8.68745 42.7254 8.9586 42.8634 9.26113C43.0014 9.56366 43.076 9.89117 43.0827 10.2236C43.0893 10.5559 43.0279 10.8862 42.9021 11.194C42.7764 11.5018 42.589 11.7806 42.3514 12.0134L20.0343 36.4035C19.8088 36.6531 19.534 36.8535 19.2273 36.992C18.9205 37.1305 18.5884 37.2042 18.2518 37.2083H18.2274Z" fill="white"/>
</svg>
